<mxfile host="app.diagrams.net" agent="Mozilla/5.0 (Windows NT 10.0; Win64; x64) AppleWebKit/537.36 (KHTML, like Gecko) Chrome/127.0.0.0 Safari/537.36" version="24.7.7">
  <diagram name="페이지-1" id="hM1I8RHIAZLeiFDqABkN">
    <mxGraphModel dx="1434" dy="772" grid="1" gridSize="10" guides="1" tooltips="1" connect="1" arrows="1" fold="1" page="1" pageScale="1" pageWidth="827" pageHeight="1169" math="0" shadow="0">
      <root>
        <mxCell id="0" />
        <mxCell id="1" parent="0" />
        <mxCell id="8fOR2eMklmFvQ-bQOoHX-3" value="" style="edgeStyle=orthogonalEdgeStyle;rounded=0;orthogonalLoop=1;jettySize=auto;html=1;fontSize=15;" edge="1" parent="1" source="8fOR2eMklmFvQ-bQOoHX-1" target="8fOR2eMklmFvQ-bQOoHX-2">
          <mxGeometry relative="1" as="geometry" />
        </mxCell>
        <mxCell id="8fOR2eMklmFvQ-bQOoHX-8" value="" style="edgeStyle=orthogonalEdgeStyle;rounded=0;orthogonalLoop=1;jettySize=auto;html=1;" edge="1" parent="1" source="8fOR2eMklmFvQ-bQOoHX-1" target="8fOR2eMklmFvQ-bQOoHX-2">
          <mxGeometry relative="1" as="geometry" />
        </mxCell>
        <mxCell id="8fOR2eMklmFvQ-bQOoHX-10" style="edgeStyle=orthogonalEdgeStyle;rounded=0;orthogonalLoop=1;jettySize=auto;html=1;exitX=1;exitY=0.5;exitDx=0;exitDy=0;entryX=0;entryY=0.5;entryDx=0;entryDy=0;" edge="1" parent="1" source="8fOR2eMklmFvQ-bQOoHX-1" target="8fOR2eMklmFvQ-bQOoHX-9">
          <mxGeometry relative="1" as="geometry" />
        </mxCell>
        <mxCell id="8fOR2eMklmFvQ-bQOoHX-1" value="&lt;font style=&quot;font-size: 15px;&quot;&gt;음악 듣기&lt;/font&gt;" style="rounded=0;whiteSpace=wrap;html=1;fontSize=15;" vertex="1" parent="1">
          <mxGeometry x="350" y="370" width="120" height="60" as="geometry" />
        </mxCell>
        <mxCell id="8fOR2eMklmFvQ-bQOoHX-2" value="멜로디, 코드 따기" style="whiteSpace=wrap;html=1;rounded=0;fontSize=15;" vertex="1" parent="1">
          <mxGeometry x="550" y="370" width="140" height="60" as="geometry" />
        </mxCell>
        <mxCell id="8fOR2eMklmFvQ-bQOoHX-9" value="" style="rounded=0;whiteSpace=wrap;html=1;" vertex="1" parent="1">
          <mxGeometry x="550" y="460" width="120" height="60" as="geometry" />
        </mxCell>
      </root>
    </mxGraphModel>
  </diagram>
</mxfile>
